<svg xmlns="http://www.w3.org/2000/svg" xmlns:xlink="http://www.w3.org/1999/xlink" width="500" zoomAndPan="magnify" viewBox="0 0 375 74.999997" height="100" preserveAspectRatio="xMidYMid meet" version="1.0"><defs><g/></defs><rect x="-37.5" width="450" fill="none" y="-7.5" height="89.999996" fill-opacity="0"/><rect x="-37.5" width="450" fill="none" y="-7.5" height="89.999996" fill-opacity="0"/><g fill="#000000" fill-opacity="1"><g transform="translate(17.02245, 50.626088)"><g><path d="M 55.328125 -0.464844 C 52.082031 -2.011719 32.902344 -25.75 31.859375 -28.070312 C 31.742188 -28.574219 32.015625 -28.804688 32.441406 -28.882812 C 32.902344 -28.921875 32.902344 -29.460938 32.476562 -29.460938 C 31.667969 -29.460938 24.203125 -29.460938 23.625 -29.460938 C 23.351562 -29.460938 23.199219 -29 23.664062 -28.84375 C 24.011719 -28.726562 24.398438 -28.535156 24.203125 -28.03125 C 24.011719 -27.605469 4.988281 -3.480469 4.097656 -2.4375 C 3.324219 -1.507812 2.203125 -0.964844 0.929688 -0.695312 C 0.078125 -0.503906 0.308594 0.15625 0.617188 0.15625 C 0.890625 0.15625 10.089844 0.15625 10.789062 0.15625 C 11.289062 0.15625 11.328125 -0.347656 10.824219 -0.503906 C 10.515625 -0.617188 10.167969 -0.734375 9.898438 -0.890625 C 9.394531 -1.238281 9.394531 -1.625 9.742188 -2.085938 C 10.089844 -2.589844 16.199219 -11.675781 19.101562 -11.597656 C 23.003906 -11.5625 31.9375 -10.980469 41.023438 -6.261719 C 45.585938 -3.710938 46.011719 -2.398438 46.28125 -1.855469 C 46.511719 -1.351562 46.398438 -0.929688 45.933594 -0.734375 C 45.777344 -0.65625 45.585938 -0.578125 45.429688 -0.542969 C 44.8125 -0.308594 45.082031 0.15625 45.390625 0.15625 C 46.050781 0.15625 54.128906 0.15625 55.175781 0.15625 C 55.714844 0.15625 55.636719 -0.308594 55.328125 -0.464844 Z M 36.460938 -13.492188 C 35.726562 -13.457031 23.855469 -16.355469 22.695312 -16.433594 C 22.308594 -16.472656 22.195312 -16.78125 22.15625 -17.167969 C 22.195312 -17.4375 22.347656 -17.667969 22.542969 -17.863281 C 23.46875 -18.828125 24.242188 -19.914062 25.09375 -20.917969 C 25.90625 -21.84375 26.679688 -22.8125 27.453125 -23.777344 C 27.800781 -24.203125 28.226562 -24.203125 28.574219 -23.816406 C 29.113281 -23.160156 29.578125 -22.503906 30.121094 -21.882812 C 30.855469 -21.109375 31.550781 -20.222656 32.246094 -19.371094 C 33.097656 -18.367188 33.949219 -17.359375 34.757812 -16.277344 C 35.144531 -15.773438 35.570312 -15.3125 35.996094 -14.847656 C 36.191406 -14.613281 36.421875 -14.421875 36.539062 -14.152344 C 36.847656 -13.878906 36.769531 -13.492188 36.460938 -13.492188 Z M 36.460938 -13.492188 "/></g></g></g><g fill="#000000" fill-opacity="1"><g transform="translate(72.967931, 50.626088)"><g><path d="M 52.121094 -5.605469 C 52.121094 -5.800781 52.121094 -5.992188 51.964844 -6.03125 C 51.734375 -6.070312 51.734375 -5.839844 51.65625 -5.683594 C 51.347656 -5.066406 50.882812 -4.601562 50.109375 -4.640625 C 48.175781 -4.640625 13.917969 -4.332031 11.597656 -4.367188 C 11.289062 -4.367188 10.863281 -4.445312 10.554688 -4.5625 C 10.246094 -4.753906 10.054688 -5.21875 10.207031 -5.527344 C 12.101562 -8.542969 22.230469 -18.789062 41.601562 -22.65625 C 45.082031 -23.351562 48.832031 -23.894531 50.652344 -24.011719 C 51.308594 -24.089844 51.808594 -24.359375 51.847656 -25.285156 C 51.847656 -25.789062 51.847656 -26.292969 51.847656 -26.753906 C 51.808594 -27.453125 52.003906 -28.457031 50.921875 -28.652344 C 48.601562 -28.960938 2.628906 -28.496094 2.628906 -28.496094 C 2.628906 -28.496094 1.894531 -28.457031 1.933594 -27.800781 C 1.972656 -26.371094 1.855469 -24.203125 1.777344 -22.773438 C 1.777344 -22.578125 1.703125 -22.347656 1.933594 -22.308594 C 2.164062 -22.269531 2.125 -22.503906 2.203125 -22.65625 C 2.398438 -23.160156 2.628906 -23.664062 3.246094 -23.703125 C 4.214844 -23.777344 5.683594 -23.777344 6.648438 -23.738281 C 8.390625 -23.703125 14.5 -23.816406 15.386719 -23.816406 C 17.476562 -23.855469 19.5625 -23.855469 21.652344 -23.855469 C 23.664062 -23.855469 24.398438 -23.933594 26.40625 -23.894531 C 26.601562 -23.894531 27.179688 -23.816406 26.949219 -23.703125 C 15.582031 -17.707031 8.46875 -12.527344 3.75 -6.613281 C 3.015625 -5.683594 2.511719 -4.601562 2.472656 -3.441406 C 2.398438 -2.125 2.359375 -1.972656 2.359375 -0.503906 C 2.359375 0.078125 3.132812 0.191406 3.519531 0.191406 C 4.097656 0.191406 4.679688 0.191406 5.21875 0.191406 C 5.492188 0.078125 22.078125 0 23.625 0 L 46.898438 0.15625 C 48.484375 0.191406 49.953125 0.191406 51.578125 0.15625 C 51.847656 0.15625 52.082031 0 52.121094 -0.269531 C 52.121094 -0.503906 52.042969 -4.253906 52.121094 -5.605469 Z M 52.121094 -5.605469 "/></g></g></g><g fill="#000000" fill-opacity="1"><g transform="translate(126.941598, 50.626088)"><g><path d="M 23.777344 -29.539062 C 22.386719 -29.539062 10.671875 -29.539062 8.082031 -29.539062 L 5.492188 -29.539062 C 4.253906 -29.539062 3.324219 -29.539062 2.242188 -29.539062 C 2.085938 -29.539062 1.972656 -29.5 1.933594 -29.230469 C 1.894531 -29 2.050781 -29 2.164062 -28.921875 C 2.898438 -28.378906 3.210938 -27.414062 3.246094 -26.175781 C 3.324219 -24.9375 3.285156 -3.75 3.285156 -3.75 C 3.285156 -2.4375 3.132812 -1.351562 2.242188 -0.8125 C 1.738281 -0.503906 1.894531 0.0390625 2.320312 -0.0390625 C 3.519531 -0.0390625 6.300781 0 8.082031 -0.0390625 L 25.246094 -0.0390625 C 41.253906 -0.0390625 54.363281 -5.375 54.363281 -13.957031 L 54.363281 -14.847656 C 54.363281 -23.429688 43.613281 -29.539062 23.777344 -29.539062 Z M 48.910156 -13.957031 C 48.910156 -7.886719 38.316406 -5.027344 25.519531 -5.027344 C 19.332031 -5.027344 14.730469 -5.140625 9.316406 -5.492188 C 8.621094 -5.527344 8.082031 -6.109375 8.082031 -6.765625 L 8.082031 -23.238281 C 8.082031 -23.933594 8.621094 -24.511719 9.316406 -24.550781 C 15.15625 -24.785156 18.480469 -24.589844 24.398438 -24.589844 C 37.195312 -24.589844 48.910156 -20.917969 48.910156 -14.847656 Z M 48.910156 -13.957031 "/></g></g></g><g fill="#000000" fill-opacity="1"><g transform="translate(182.809762, 50.626088)"><g><path d="M 11.019531 -28.960938 C 11.367188 -29.035156 11.484375 -29.386719 10.980469 -29.386719 L 4.136719 -29.386719 C 3.671875 -29.386719 3.671875 -29.074219 4.097656 -28.921875 C 4.910156 -28.535156 4.988281 -28.03125 5.027344 -27.335938 L 4.988281 -14.769531 L 4.988281 -14.652344 C 4.988281 -9.085938 4.988281 -3.597656 4.988281 -3.054688 C 5.027344 -2.050781 5.21875 -0.773438 3.828125 -0.464844 C 3.480469 -0.347656 3.402344 0 3.867188 0 L 10.710938 0 C 11.175781 0 11.210938 -0.347656 10.789062 -0.503906 C 9.9375 -0.851562 9.898438 -1.351562 9.859375 -2.050781 L 9.859375 -14.769531 C 9.859375 -20.335938 9.859375 -25.828125 9.859375 -26.332031 C 9.859375 -27.335938 9.628906 -28.613281 11.019531 -28.960938 Z M 11.019531 -28.960938 "/></g></g></g><g fill="#000000" fill-opacity="1"><g transform="translate(197.695051, 50.626088)"><g><path d="M 47.285156 -28.84375 C 47.867188 -29.035156 47.828125 -29.460938 47.519531 -29.460938 L 40.519531 -29.460938 C 40.171875 -29.460938 40.132812 -29 40.519531 -28.921875 C 41.601562 -28.652344 41.371094 -28.070312 41.371094 -27.105469 L 41.527344 -10.75 C 41.5625 -10.089844 40.792969 -9.742188 40.289062 -10.167969 C 34.605469 -15.3125 20.609375 -26.445312 9.046875 -28.03125 C 8.699219 -28.03125 8.273438 -28.148438 8.273438 -28.378906 C 8.234375 -28.726562 8.738281 -28.921875 9.046875 -29.035156 C 9.433594 -29.152344 9.394531 -29.460938 9.046875 -29.460938 L 2.164062 -29.460938 C 2.011719 -29.460938 1.777344 -29.152344 2.203125 -28.960938 C 2.707031 -28.6875 3.054688 -28.300781 3.09375 -27.722656 C 3.246094 -26.5625 3.246094 -4.058594 3.210938 -2.859375 C 3.210938 -1.855469 3.132812 -1.003906 2.085938 -0.542969 C 1.972656 -0.464844 1.703125 -0.386719 1.777344 -0.15625 C 1.855469 0.078125 1.855469 0.078125 2.050781 0.078125 C 2.824219 0.0390625 7.421875 0.078125 8.855469 0.078125 C 9.316406 0.078125 9.203125 -0.308594 8.929688 -0.425781 C 8.351562 -0.65625 7.808594 -1.546875 7.808594 -2.320312 C 7.773438 -3.519531 7.964844 -20.027344 7.964844 -21.421875 C 7.964844 -22.15625 8.390625 -22.503906 9.125 -22.386719 C 18.597656 -22.230469 36.617188 -8.003906 41.101562 -1.664062 C 41.371094 -1.238281 41.175781 -0.65625 40.675781 -0.503906 C 40.636719 -0.503906 40.597656 -0.503906 40.558594 -0.464844 C 40.09375 -0.386719 40.09375 0.078125 40.441406 0.078125 L 47.363281 0.078125 C 47.632812 0.078125 47.75 -0.347656 47.363281 -0.425781 C 46.398438 -0.65625 46.398438 -1.199219 46.359375 -2.125 C 46.359375 -3.324219 46.398438 -26.058594 46.398438 -27.375 C 46.398438 -27.992188 46.589844 -28.613281 47.285156 -28.84375 Z M 47.285156 -28.84375 "/></g></g></g><g fill="#000000" fill-opacity="1"><g transform="translate(247.26114, 50.626088)"><g><path d="M 54.054688 -6.109375 C 54.054688 -6.378906 53.703125 -6.378906 53.703125 -6.109375 C 53.511719 -4.832031 52.660156 -4.640625 51.617188 -4.640625 C 50.378906 -4.640625 45.703125 -4.640625 42.53125 -4.640625 L 42.53125 -4.601562 L 30.816406 -4.601562 C 25.867188 -4.601562 14.808594 -4.601562 9.164062 -4.601562 C 8.621094 -4.601562 8.195312 -5.027344 8.195312 -5.566406 C 8.195312 -6.378906 8.195312 -7.308594 8.195312 -8.351562 L 8.195312 -10.054688 C 8.195312 -10.59375 8.621094 -11.019531 9.164062 -11.019531 C 11.714844 -11.019531 14.035156 -11.019531 15.699219 -11.019531 L 27.375 -11.019531 L 27.375 -10.980469 C 30.582031 -11.019531 35.261719 -11.019531 36.5 -10.980469 C 37.503906 -10.980469 38.394531 -10.789062 38.585938 -9.511719 C 38.585938 -9.242188 38.933594 -9.242188 38.933594 -9.511719 C 38.933594 -9.78125 38.933594 -10.671875 38.898438 -11.675781 L 38.898438 -11.714844 C 38.898438 -12.140625 38.898438 -12.757812 38.898438 -13.457031 C 38.898438 -14.152344 38.898438 -14.769531 38.898438 -15.15625 C 38.933594 -15.195312 38.933594 -15.195312 38.898438 -15.234375 C 38.933594 -16.238281 38.933594 -17.128906 38.933594 -17.398438 C 38.933594 -17.632812 38.585938 -17.632812 38.585938 -17.359375 C 38.394531 -16.085938 37.503906 -15.890625 36.5 -15.890625 C 35.261719 -15.890625 30.582031 -15.890625 27.375 -15.890625 L 27.375 -15.851562 L 15.699219 -15.851562 C 14.035156 -15.851562 11.714844 -15.851562 9.164062 -15.851562 C 8.621094 -15.851562 8.195312 -16.277344 8.195312 -16.820312 C 8.195312 -19.332031 8.195312 -21.652344 8.195312 -23.351562 C 8.195312 -23.894531 8.621094 -24.320312 9.164062 -24.320312 C 14.808594 -24.320312 25.828125 -24.359375 30.777344 -24.320312 L 42.492188 -24.320312 L 42.492188 -24.28125 C 45.664062 -24.320312 50.339844 -24.320312 51.578125 -24.28125 C 52.582031 -24.28125 53.472656 -24.089844 53.667969 -22.8125 C 53.667969 -22.542969 54.015625 -22.542969 54.015625 -22.8125 C 54.015625 -23.429688 53.976562 -27.257812 54.015625 -28.496094 C 54.015625 -29 53.859375 -29.152344 53.355469 -29.152344 C 52.273438 -29.152344 21.882812 -29.152344 9.472656 -29.152344 C 9.433594 -29.152344 9.394531 -29.152344 9.316406 -29.152344 L 2.472656 -29.152344 C 2.011719 -29.152344 2.011719 -28.84375 2.4375 -28.6875 C 3.246094 -28.300781 3.324219 -27.800781 3.324219 -27.105469 L 3.324219 -11.019531 C 3.324219 -6.804688 3.324219 -3.246094 3.324219 -2.824219 C 3.363281 -1.816406 3.558594 -0.542969 2.164062 -0.230469 C 1.816406 -0.117188 1.738281 0.230469 2.203125 0.230469 L 9.394531 0.230469 C 9.433594 0.230469 9.472656 0.230469 9.511719 0.191406 L 9.550781 0.191406 C 21.921875 0.230469 52.351562 0.230469 53.433594 0.230469 C 53.9375 0.230469 54.054688 0.078125 54.054688 -0.425781 C 54.054688 -1.664062 54.054688 -5.492188 54.054688 -6.109375 Z M 54.054688 -6.109375 "/></g></g></g><g fill="#000000" fill-opacity="1"><g transform="translate(303.399942, 50.626088)"><g><path d="M 53.28125 -0.503906 C 50.84375 -1.390625 41.835938 -11.445312 39.4375 -14.113281 C 41.835938 -16.820312 50.84375 -26.832031 53.28125 -27.761719 C 53.898438 -27.953125 53.628906 -28.378906 53.242188 -28.378906 L 45.316406 -28.378906 C 44.8125 -28.378906 44.8125 -27.878906 45.277344 -27.839844 C 45.855469 -27.722656 46.050781 -27.335938 45.703125 -26.792969 C 45.585938 -26.5625 37.8125 -19.023438 37.3125 -18.480469 C 36.617188 -17.824219 36.113281 -17.707031 35.378906 -18.636719 C 26.5625 -25.984375 14.382812 -28.378906 6.960938 -28.378906 C 5.566406 -28.457031 4.136719 -28.417969 2.746094 -28.417969 C 2.320312 -28.417969 1.972656 -27.878906 2.011719 -27.375 L 2.011719 -23.121094 C 2.011719 -22.695312 2.4375 -22.8125 2.511719 -23.121094 C 2.667969 -23.777344 3.015625 -24.164062 3.519531 -24.164062 C 16.433594 -24.746094 24.28125 -21.304688 31.125 -16.472656 C 32.246094 -15.503906 32.710938 -14.808594 32.902344 -14.113281 C 32.710938 -13.417969 32.246094 -12.757812 31.125 -11.753906 C 24.28125 -6.921875 16.433594 -3.480469 3.519531 -4.058594 C 3.015625 -4.097656 2.667969 -4.484375 2.511719 -5.105469 C 2.4375 -5.453125 2.011719 -5.566406 2.011719 -5.105469 L 2.011719 -0.851562 C 1.972656 -0.347656 2.320312 0.15625 2.746094 0.15625 C 4.136719 0.15625 5.566406 0.191406 6.960938 0.15625 C 14.382812 0.15625 26.5625 -2.28125 35.378906 -9.628906 C 36.113281 -10.515625 36.617188 -10.402344 37.3125 -9.742188 C 37.8125 -9.203125 45.585938 -1.664062 45.703125 -1.429688 C 46.050781 -0.890625 45.855469 -0.542969 45.277344 -0.425781 C 44.8125 -0.347656 44.8125 0.15625 45.316406 0.15625 L 53.242188 0.15625 C 53.628906 0.15625 53.898438 -0.308594 53.28125 -0.503906 Z M 53.28125 -0.503906 "/></g></g></g></svg>